<?xml version="1.0" encoding="UTF-8"?>
<svg width="48" height="48" fill="none" version="1.1" viewBox="0 0 48 48" xmlns="http://www.w3.org/2000/svg">
 <defs>
  <clipPath id="clipPath1160">
   <path d="m25.54 34.58c-10.94 0-17.18-7.5-17.44-19.98h5.48c0.18 9.16 4.2199 13.04 7.4199 13.84v-13.84h5.1602v7.9c3.16-0.34 6.4796-3.94 7.5996-7.9h5.1601c-0.86 4.88-4.46 8.48-7.02 9.96 2.56 1.2 6.6602 4.34 8.2202 10.02h-5.6802c-1.22-3.8-4.2597-6.74-8.2797-7.14v7.14z" display="none" fill="#fff"/>
   <path class="powerclip" d="m-5-5h58v58h-58zm30.54 39.58h0.6202v-7.14c4.02 0.4 7.0597 3.34 8.2797 7.14h5.6802c-1.56-5.68-5.6602-8.82-8.2202-10.02 2.56-1.48 6.16-5.08 7.02-9.96h-5.1601c-1.12 3.96-4.4396 7.56-7.5996 7.9v-7.9h-5.1602v13.84c-3.2-0.8-7.2399-4.68-7.4199-13.84h-5.48c0.26 12.48 6.4999 19.98 17.44 19.98z"/>
  </clipPath>
 </defs>
 <path d="M 0,23.04 C 0,12.1788 0,6.74826 3.37413,3.37413 6.74826,0 12.1788,0 23.04,0 h 1.92 C 35.8212,0 41.2517,0 44.6259,3.37413 48,6.74826 48,12.1788 48,23.04 v 1.92 C 48,35.8212 48,41.2517 44.6259,44.6259 41.2517,48 35.8212,48 24.96,48 H 23.04 C 12.1788,48 6.74826,48 3.37413,44.6259 0,41.2517 0,35.8212 0,24.96 Z" clip-path="url(#clipPath1160)" fill="#000"/>
</svg>
